<?xml version="1.0" standalone="no"?>
<!DOCTYPE svg PUBLIC "-//W3C//DTD SVG 20010904//EN"
 "http://www.w3.org/TR/2001/REC-SVG-20010904/DTD/svg10.dtd">
<svg version="1.0" xmlns="http://www.w3.org/2000/svg"
 width="300.000000pt" height="300.000000pt" viewBox="0 0 300.000000 300.000000"
 preserveAspectRatio="xMidYMid meet">
<metadata>
Created by potrace 1.10, written by Peter Selinger 2001-2011
</metadata>
<g transform="translate(0.000000,300.000000) scale(0.100000,-0.100000)"
fill="#000000" stroke="none">
<path d="M1395 2249 c-183 -52 -185 -54 -185 -195 0 -84 -3 -104 -14 -104 -8
0 -18 5 -21 10 -8 13 -61 13 -86 0 -38 -21 -49 -62 -49 -191 0 -118 -1 -121
-18 -106 -33 30 -120 12 -136 -28 -3 -9 -6 -85 -6 -169 0 -152 0 -153 26 -179
19 -19 23 -28 13 -31 -65 -19 -111 -41 -124 -59 -24 -35 -19 -109 10 -141 13
-14 29 -26 35 -26 6 0 -5 -14 -25 -31 -31 -28 -35 -37 -35 -79 0 -37 6 -56 24
-76 l23 -28 77 20 c42 12 78 19 80 16 3 -2 -2 -15 -11 -29 -17 -26 -16 -36 15
-156 20 -76 87 -111 138 -72 10 8 34 15 52 15 19 0 48 6 65 14 18 8 43 17 57
19 14 3 43 11 65 17 22 6 62 15 89 20 26 5 59 16 72 25 13 8 33 15 44 15 12 0
31 5 43 12 12 7 33 11 47 9 16 -1 33 6 45 19 14 16 26 19 47 14 19 -4 37 0 53
10 13 9 31 13 39 10 19 -7 52 11 71 40 14 22 14 33 0 117 -10 58 -24 102 -36
118 l-21 26 64 18 c231 65 250 71 269 95 38 48 19 147 -32 164 -7 2 1 16 20
35 27 27 31 39 31 83 0 44 -4 56 -29 79 l-28 26 28 27 c24 21 29 34 29 75 0
64 -20 93 -66 93 -38 0 -41 5 -19 30 43 47 16 128 -49 150 -31 10 -41 9 -68
-7 -17 -10 -39 -33 -48 -50 l-17 -33 -19 21 c-24 26 -85 21 -119 -11 -20 -19
-23 -19 -29 -5 -3 9 -6 63 -6 119 0 137 -16 153 -126 125 -47 -12 -66 -7 -46
13 7 7 12 33 12 58 0 36 -5 52 -23 68 -13 12 -30 22 -38 21 -8 0 -77 -18 -154
-40z m175 -43 l0 -54 -112 -31 c-61 -17 -113 -32 -115 -35 -2 -2 -4 -152 -3
-334 l0 -331 -37 -10 c-21 -6 -41 -11 -45 -11 -5 0 -8 172 -8 383 l0 383 158
45 c86 26 158 47 160 48 1 0 2 -23 2 -53z m165 -386 l0 -290 -29 -10 c-58 -20
-56 -30 -56 229 l0 239 -61 -19 c-87 -27 -89 -27 -89 29 l0 48 108 31 c59 17
112 31 117 32 6 1 10 -101 10 -289z m-261 233 c-18 -36 -18 -67 1 -102 18 -36
34 -42 90 -34 l45 6 0 -201 c0 -200 0 -201 25 -230 14 -17 22 -33 18 -35 -15
-9 -117 -37 -135 -37 -17 0 -17 2 2 33 18 29 20 50 20 208 0 163 -2 178 -21
203 -25 32 -66 34 -102 6 -14 -11 -28 -20 -31 -20 -4 0 -5 46 -4 103 l3 102
35 12 c19 7 43 12 52 12 15 1 15 -2 2 -26z m-304 -397 l0 -283 -27 -6 c-16 -3
-36 -9 -45 -12 -17 -7 -18 10 -18 274 l0 282 33 14 c60 26 57 40 57 -269z
m918 268 c44 -31 17 -104 -39 -104 -36 0 -59 24 -59 60 0 30 30 60 60 60 9 0
26 -7 38 -16z m-188 -193 l0 -159 -24 -6 c-13 -3 -31 -9 -40 -12 -14 -5 -16
12 -16 153 l0 160 33 11 c17 5 35 10 40 11 4 1 7 -71 7 -158z m-400 -69 l0
-198 -40 -11 -40 -10 2 200 3 201 25 7 c52 14 50 22 50 -189z m529 108 c0 -7
-68 -50 -80 -50 -10 0 -13 103 -3 113 6 6 82 -52 83 -63z m139 -67 l-3 -57
-80 -23 c-44 -12 -85 -23 -91 -23 -7 0 -9 18 -6 53 2 28 5 53 7 54 2 3 155 50
168 52 4 0 7 -25 5 -56z m-1168 -212 l0 -159 -31 -11 c-61 -21 -59 -25 -59
148 l0 159 38 10 c20 5 40 10 45 11 4 1 7 -71 7 -158z m980 84 l23 -24 -27
-11 c-15 -5 -39 -10 -53 -10 l-26 0 21 23 c12 13 22 29 22 35 0 19 15 14 40
-13z m-150 -67 c0 -7 -65 -28 -88 -28 -8 0 -2 14 14 34 27 33 28 34 50 18 13
-10 24 -20 24 -24z m340 -15 l0 -58 -203 -54 c-250 -67 -1103 -298 -1128 -306
-17 -6 -19 -1 -19 52 l0 58 493 133 c270 73 571 155 667 182 96 26 178 48 183
49 4 1 7 -25 7 -56z m-740 -93 c0 -6 -75 -30 -95 -30 -3 0 6 15 21 34 26 32
29 33 51 19 13 -8 23 -19 23 -23z m-178 -52 c-5 -5 -26 -11 -46 -15 l-38 -6
23 36 24 36 23 -21 c12 -12 18 -26 14 -30z m-174 -17 c12 -11 22 -21 22 -24 0
-6 -91 -29 -96 -24 -4 4 39 67 46 66 3 0 15 -8 28 -18z m1092 -49 l0 -58 -667
-182 c-368 -100 -671 -182 -675 -182 -5 0 -8 25 -8 55 l0 54 53 15 c28 9 326
90 662 181 335 92 612 168 614 171 14 14 21 -3 21 -54z m-295 -323 c19 -120
19 -116 -6 -129 -25 -14 -31 -10 -35 30 -2 17 -10 43 -18 58 -15 27 -15 26
-16 -30 0 -69 -7 -88 -31 -88 -17 0 -23 12 -22 48 1 6 -4 12 -9 12 -6 0 -7 7
-4 16 4 9 2 13 -5 8 -8 -4 -9 1 -4 16 5 17 4 21 -6 15 -9 -6 -11 -3 -6 8 3 10
2 17 -3 17 -5 0 -7 7 -4 15 4 8 1 15 -5 15 -17 0 -13 37 5 44 9 4 18 5 19 4 1
-2 11 -28 23 -58 l22 -55 -5 61 c-8 87 13 92 50 13 16 -32 30 -57 32 -56 1 2
-3 27 -11 56 -12 45 -11 54 2 67 8 8 16 13 19 11 2 -3 11 -47 18 -98z m-205
34 c0 -5 7 -51 15 -103 15 -89 15 -95 -1 -107 -25 -18 -29 -17 -42 13 -7 15
-8 23 -2 19 6 -4 2 10 -7 31 l-18 37 -3 -44 c-4 -71 -10 -89 -32 -89 -18 0
-24 12 -23 47 1 7 -4 10 -10 6 -6 -4 -8 0 -4 10 4 10 2 17 -4 17 -6 0 -8 7 -5
16 3 8 2 12 -4 9 -9 -6 -11 -1 -14 38 -1 6 -6 18 -13 25 -15 15 -7 38 14 46
20 8 16 13 41 -59 20 -60 32 -44 14 20 -21 74 18 74 53 0 14 -30 27 -55 29
-55 5 0 -2 31 -16 77 -5 18 -7 37 -3 43 7 12 35 14 35 3z m-192 -65 c-2 -17
-11 -24 -30 -26 -29 -3 -32 -9 -22 -36 4 -11 14 -13 35 -9 21 4 29 2 29 -8 0
-20 -15 -41 -27 -37 -11 3 -13 -1 -13 -28 0 -13 7 -15 40 -9 40 7 51 -4 32
-30 -6 -9 -77 -35 -94 -35 -3 0 -8 21 -12 48 -4 26 -15 70 -25 99 -10 29 -15
56 -12 62 6 9 63 28 89 30 8 1 12 -8 10 -21z m-120 -51 c7 -15 15 -47 16 -70
2 -24 9 -53 15 -66 10 -17 10 -25 0 -37 -14 -17 -34 -13 -35 7 -1 26 -15 59
-26 59 -6 0 -8 -13 -4 -36 7 -33 -5 -64 -24 -64 -4 0 -10 21 -13 46 -2 26 -9
49 -14 53 -6 3 -10 21 -11 39 0 18 -5 39 -11 46 -13 15 -2 32 29 45 39 16 64
9 78 -22z m-130 -30 c11 -23 11 -30 -2 -43 -20 -19 -36 -10 -29 16 6 22 -15
28 -23 6 -7 -18 25 -126 37 -126 5 0 14 11 19 25 12 32 26 32 34 0 8 -33 -10
-61 -51 -73 -37 -11 -45 -5 -50 38 -1 14 -11 51 -21 82 -21 64 -17 80 28 97
33 13 43 9 58 -22z m-130 -19 c15 -15 15 -45 0 -54 -6 -4 -16 0 -23 9 -14 20
-35 22 -35 5 0 -25 15 -36 50 -40 32 -3 36 -6 44 -46 8 -37 6 -46 -10 -62 -10
-11 -34 -22 -51 -26 -29 -6 -34 -3 -43 20 -5 14 -7 33 -4 41 8 20 40 19 48 -1
8 -20 26 -8 26 18 0 19 -4 20 -44 15 -42 -6 -44 -5 -50 21 -4 15 -9 35 -12 44
-12 41 73 87 104 56z"/>
<path d="M1296 861 c-10 -15 13 -63 27 -58 6 2 12 9 11 15 -1 7 -2 21 -2 32
-2 20 -26 28 -36 11z"/>
<path d="M1984 1096 c-46 -46 -47 -99 -5 -145 24 -25 37 -31 71 -31 34 0 47 6
71 31 50 53 35 130 -31 164 -44 23 -69 18 -106 -19z m111 -31 c30 -29 32 -55
7 -86 -23 -27 -75 -30 -99 -6 -24 24 -21 76 6 99 31 25 57 23 86 -7z"/>
</g>
</svg>
