<?xml version="1.0" encoding="UTF-8"?>
<svg version="1.1" viewBox="0 0 1563 1563" width="1280" height="1280" xmlns="http://www.w3.org/2000/svg">
<path transform="translate(0)" d="m0 0h1563v1563h-1563z"/>
<path transform="translate(1128,756)" d="m0 0h3v58l-6 3-21 6-16 4-30 8-38 10-36 10-27 7-40 11-27 7-18 5-40 11-26 7-34 9-18 5-28 8-28 7-18 5-40 11-32 9-68 18-22 6-34 9-17 5-26 7-13 3-1-1v-56l3-3 10-3 21-6 26-7 30-8 28-8 39-10 24-7 42-11 26-7 18-5 30-8 54-15 60-16 23-6 18-5 22-6 19-5 20-5 24-7 26-7 38-10 21-6 31-8 43-12z" fill="#FDFCFC"/>
<path transform="translate(1129,866)" d="m0 0 2 1v57l-10 4-27 7-17 5-26 7-120 33-20 5-23 7-27 7-58 16-27 7-24 7-20 5-24 7-20 5-24 7-34 9-110 30-36 10-30 8-22 6-5-1v-56l4-3 19-5 44-12 30-8 24-7 60-16 24-7 19-5 23-6 24-7 38-10 121-33 37-10 17-5 49-13 18-5 26-7 18-5 24-7 16-4 26-7z" fill="#FDFCFC"/>
<path transform="translate(816,388)" d="m0 0 3 1v51l-5 3-26 7-31 9-25 7-31 9-5 1v345l-4 3-39 11-2-1v-398l5-3 54-15 31-9 57-16z" fill="#FDFCFC"/>
<path transform="translate(898,464)" d="m0 0h5l1 1v300l-5 3-35 10-4-2-1-2-1-245-32 9-24 7-10 3h-8l-1-1v-48l2-3 26-8 32-8 13-4 40-11z" fill="#FDFCFC"/>
<path transform="translate(601,553)" d="m0 0h6l1 2v290l-1 2-17 5-15 4-8 1-2-1v-289l5-5 16-5z" fill="#FDFCFC"/>
<path transform="translate(776,594)" d="m0 0 4 1 1 101v96l-1 7-9 4-27 7h-5v-202l5-5 24-7z" fill="#FDFCFC"/>
<path transform="translate(966,1014)" d="m0 0 3 1 3 16 10 65 3 20v5l-2 2-5 2v5l-12 4-6-1-7-14-9-16-5-10v41l-4 2h-3v6l-7 3-3 1h-7l-6-14-10-26-11-28-8-20-3-8 1-4 6-1-1-8 9-3 8-1 9 24 5 14v2h2l-1-2-2-26v-7l1-2 5-1v-7l6-3 6-1 5 8 12 23 2 4-3-19-1-12 6-2-1-6 3-3z" fill="#FCFBFB"/>
<path transform="translate(866,1041)" d="m0 0 4 2 15 98v8l-7 2v6l-12 4-5-1-14-26-8-15v42l-6 2-1 7-12 3h-5l-9-23-5-13-4-10-10-26-8-20-2-7 5-3h2l-1-7 9-3 8-1 7 18 7 20v-34l5-2v-7l6-3 7-1 10 19 8 16-1-10-3-17 1-5 5-1v-8z" fill="#FCFBFB"/>
<path transform="translate(516,704)" d="m0 0h5l1 3v142l-1 19-3 3-28 8-13 3-1-1v-163l4-4 24-7z" fill="#FDFCFC"/>
<path transform="translate(985,580)" d="m0 0h6v161l-1 2-19 6-18 5-5-1-1-12v-143l2-7z" fill="#FDFCFC"/>
<path transform="translate(685,1090)" d="m0 0h13l6 4 4 6 10 36 1 10-3 7-2 2 1 4 14 25 2 3v4l-7 2v6l-15 4-3-3-12-22v-2h-2l-2-4 2 10 4 17-5 3h-3l1 6-9 3-8 1-9-32-10-38-8-28v-5l1-1h5l-1-7 5-3z" fill="#FCFBFB"/>
<path transform="translate(556,1125)" d="m0 0h8l8 5 4 7 4 14v5l-7 3v5l-7 3-9 1-5-14-8-1 4 17 30 2 7 2 2 2 9 35-1 10-10 12-4 4-15 5-9 2h-8l-6-3-5-6-5-16v-5l6-1-1-7 2-2 12-3h4l5 14 4 1h4l-3-12v-5h-12l-19-1-7-1-3-8-8-29v-8l3-6h2l2-6 6-7 10-4z" fill="#FCFBFB"/>
<path transform="translate(1126,647)" d="m0 0h5v57l-11 4-26 7-50 14-8 1-1-1v-50l3-6 10-4 34-9 17-5 25-7z" fill="#FDFCFC"/>
<path transform="translate(765,1068)" d="m0 0 5 1 3 11v5l-7 3 1 5-7 3-18 4 4 20 22-6h5l3 7 2 9-2 2-6 2 1 5-16 5h-2l5 18v2l29-8h6l3 8 1 9-7 2v6l-20 6-27 7h-4l-8-29-12-43-6-23-1-8 6-2v-8z" fill="#FCFBFB"/>
<path transform="translate(622,1107)" d="m0 0 10 1 7 6 4 9 3 11v5l-7 2v6l-13 4-3-1-5-14-2-1-7 1 9 32 8 29 6 1 3-2-2-9 7-2-1-7 7-3 10-1 3 8 2 8v12l-4 6-5 6-4 4-8 4-15 4h-11l-6-3-5-7-4-13-7-26-9-33v-11l5-7 4-8 8-5z" fill="#FCFBFB"/>
<path transform="translate(1061,997)" d="m0 0h16l11 5 8 7 5 10 1 3v18l-4 9-6 8-10 6-6 2h-16l-10-4-8-7-5-8-3-11v-9l2-8 5-9 8-7 9-4z" fill="#FDFCFC"/>
<path transform="translate(1065,553)" d="m0 0 11 1 10 4 7 6 4 6 3 10v9l-3 10-6 8-5 4-8 4-5 1h-12l-9-3-6-4-6-7-4-9-1-11 3-10 6-9 8-6 7-3z" fill="#FDFCFC"/>
<path transform="translate(677,1117)" d="m0 0h7l3 5 5 18v5l-10 2-5-16-3-12z"/>
</svg>
